# xmcd
#
# Track frame offsets:
#	150
#	10980
#	32028
#	44381
#	62869
#	83040
#	100274
#	115414
#	135476
#	148126
#	169652
#	182474
#	194805
#	217634
#
# Disc length: 3153 seconds
#
# Revision: 0
# Processed by: cddbd v1.4PL0 Copyright (c) Steve Scherf et al.
# Submitted via: EasyCDDAExtractor 5.0.5.1
#
DISCID=c20c4f0e
DTITLE=Selwyn Cooper and The Hurricane Blues Band - Louisiana Swamp Blues
DYEAR=1999
DGENRE=Blues
TTITLE0=The Cat is Black
TTITLE1=The Sky is Crying
TTITLE2=Squallin'
TTITLE3=Put My Trust in You
TTITLE4=Woke Up This Morning
TTITLE5=Hurricane Blues
TTITLE6=Kansas City
TTITLE7=Ain't No Use
TTITLE8=Mathilda
TTITLE9=Rock Me Baby
TTITLE10=Mardi Gras in New Orleans
TTITLE11=Crazy Mama
TTITLE12=Hit the Big Time
TTITLE13=Europa
EXTD=Special Guests:\nGordon Wills and Harmonica Red
EXTT0=
EXTT1=
EXTT2=
EXTT3=
EXTT4=
EXTT5=
EXTT6=
EXTT7=
EXTT8=
EXTT9=
EXTT10=
EXTT11=
EXTT12=
EXTT13=
PLAYORDER=
